{
    "asset" : {
        "generator" : "Khronos glTF Blender I/O v1.5.17",
        "version" : "2.0"
    },
    "scene" : 0,
    "scenes" : [
        {
            "name" : "Scene",
            "nodes" : [
                6
            ]
        }
    ],
    "nodes" : [
        {
            "mesh" : 0,
            "name" : "defaultMaterial.001"
        },
        {
            "children" : [
                0
            ],
            "name" : "cabin_low",
            "translation" : [
                127.02223205566406,
                92.4307861328125,
                -101.95911407470703
            ]
        },
        {
            "mesh" : 1,
            "name" : "defaultMaterial"
        },
        {
            "children" : [
                2
            ],
            "name" : "Plane",
            "translation" : [
                142.8050994873047,
                53.80313491821289,
                -99.06305694580078
            ]
        },
        {
            "children" : [
                1,
                3
            ],
            "name" : "Collada visual scene group",
            "rotation" : [
                0.7071068286895752,
                0,
                0,
                0.7071068286895752
            ]
        },
        {
            "children" : [
                4
            ],
            "name" : "RootNode (model correction matrix)"
        },
        {
            "children" : [
                5
            ],
            "name" : "RootNode (gltf orientation matrix)",
            "rotation" : [
                -0.7071068286895752,
                0,
                0,
                0.7071068286895752
            ],
            "scale" : [
                0.014999999664723873,
                0.014999999664723873,
                0.014999999664723873
            ]
        }
    ],
    "materials" : [
        {
            "doubleSided" : true,
            "emissiveFactor" : [
                1,
                1,
                1
            ],
            "emissiveTexture" : {
                "index" : 0
            },
            "name" : "DefaultMaterial",
            "normalTexture" : {
                "index" : 1
            },
            "occlusionTexture" : {
                "index" : 2
            },
            "pbrMetallicRoughness" : {
                "baseColorTexture" : {
                    "index" : 3
                },
                "metallicRoughnessTexture" : {
                    "index" : 2
                }
            }
        },
        {
            "alphaMode" : "BLEND",
            "doubleSided" : true,
            "emissiveFactor" : [
                1,
                1,
                1
            ],
            "emissiveTexture" : {
                "index" : 4
            },
            "name" : "glass",
            "normalTexture" : {
                "index" : 5
            },
            "occlusionTexture" : {
                "index" : 6
            },
            "pbrMetallicRoughness" : {
                "baseColorTexture" : {
                    "index" : 7
                },
                "metallicRoughnessTexture" : {
                    "index" : 6
                }
            }
        }
    ],
    "meshes" : [
        {
            "name" : "defaultMaterial.001",
            "primitives" : [
                {
                    "attributes" : {
                        "POSITION" : 0,
                        "NORMAL" : 1,
                        "TEXCOORD_0" : 2
                    },
                    "indices" : 3,
                    "material" : 0
                }
            ]
        },
        {
            "name" : "defaultMaterial",
            "primitives" : [
                {
                    "attributes" : {
                        "POSITION" : 4,
                        "NORMAL" : 5,
                        "TEXCOORD_0" : 6
                    },
                    "indices" : 7,
                    "material" : 1
                }
            ]
        }
    ],
    "textures" : [
        {
            "sampler" : 0,
            "source" : 0
        },
        {
            "sampler" : 0,
            "source" : 1
        },
        {
            "sampler" : 0,
            "source" : 2
        },
        {
            "sampler" : 0,
            "source" : 3
        },
        {
            "sampler" : 0,
            "source" : 4
        },
        {
            "sampler" : 0,
            "source" : 5
        },
        {
            "sampler" : 0,
            "source" : 6
        },
        {
            "sampler" : 0,
            "source" : 7
        }
    ],
    "images" : [
        {
            "mimeType" : "image/jpeg",
            "name" : "DefaultMaterial_emissive",
            "uri" : "DefaultMaterial_emissive.jpg"
        },
        {
            "mimeType" : "image/png",
            "name" : "DefaultMaterial_normal",
            "uri" : "DefaultMaterial_normal.png"
        },
        {
            "mimeType" : "image/png",
            "name" : "DefaultMaterial_metallicRoughness",
            "uri" : "DefaultMaterial_metallicRoughness.png"
        },
        {
            "mimeType" : "image/jpeg",
            "name" : "DefaultMaterial_baseColor",
            "uri" : "DefaultMaterial_baseColor.jpg"
        },
        {
            "mimeType" : "image/jpeg",
            "name" : "glass_emissive",
            "uri" : "glass_emissive.jpg"
        },
        {
            "mimeType" : "image/png",
            "name" : "glass_normal",
            "uri" : "glass_normal.png"
        },
        {
            "mimeType" : "image/png",
            "name" : "glass_metallicRoughness",
            "uri" : "glass_metallicRoughness.png"
        },
        {
            "mimeType" : "image/png",
            "name" : "glass_baseColor",
            "uri" : "glass_baseColor.png"
        }
    ],
    "accessors" : [
        {
            "bufferView" : 0,
            "componentType" : 5126,
            "count" : 30483,
            "max" : [
                117.90499114990234,
                92.52196502685547,
                86.06023406982422
            ],
            "min" : [
                -126.87275695800781,
                -85.58627319335938,
                -83.31617736816406
            ],
            "type" : "VEC3"
        },
        {
            "bufferView" : 1,
            "componentType" : 5126,
            "count" : 30483,
            "type" : "VEC3"
        },
        {
            "bufferView" : 2,
            "componentType" : 5126,
            "count" : 30483,
            "type" : "VEC2"
        },
        {
            "bufferView" : 3,
            "componentType" : 5123,
            "count" : 151557,
            "type" : "SCALAR"
        },
        {
            "bufferView" : 4,
            "componentType" : 5126,
            "count" : 18,
            "max" : [
                69.82281494140625,
                28.370691299438477,
                63.86952209472656
            ],
            "min" : [
                -66.60789489746094,
                -24.863262176513672,
                -63.8695182800293
            ],
            "type" : "VEC3"
        },
        {
            "bufferView" : 5,
            "componentType" : 5126,
            "count" : 18,
            "type" : "VEC3"
        },
        {
            "bufferView" : 6,
            "componentType" : 5126,
            "count" : 18,
            "type" : "VEC2"
        },
        {
            "bufferView" : 7,
            "componentType" : 5123,
            "count" : 24,
            "type" : "SCALAR"
        }
    ],
    "bufferViews" : [
        {
            "buffer" : 0,
            "byteLength" : 365796,
            "byteOffset" : 0
        },
        {
            "buffer" : 0,
            "byteLength" : 365796,
            "byteOffset" : 365796
        },
        {
            "buffer" : 0,
            "byteLength" : 243864,
            "byteOffset" : 731592
        },
        {
            "buffer" : 0,
            "byteLength" : 303114,
            "byteOffset" : 975456
        },
        {
            "buffer" : 0,
            "byteLength" : 216,
            "byteOffset" : 1278572
        },
        {
            "buffer" : 0,
            "byteLength" : 216,
            "byteOffset" : 1278788
        },
        {
            "buffer" : 0,
            "byteLength" : 144,
            "byteOffset" : 1279004
        },
        {
            "buffer" : 0,
            "byteLength" : 48,
            "byteOffset" : 1279148
        }
    ],
    "samplers" : [
        {
            "magFilter" : 9729,
            "minFilter" : 9987
        }
    ],
    "buffers" : [
        {
            "byteLength" : 1279196,
            "uri" : "mountaineers_cabin.bin"
        }
    ]
}
