{
    "asset" : {
        "generator" : "Khronos glTF Blender I/O v1.5.17",
        "version" : "2.0"
    },
    "scene" : 0,
    "scenes" : [
        {
            "name" : "Scene",
            "nodes" : [
                0
            ]
        }
    ],
    "nodes" : [
        {
            "mesh" : 0,
            "name" : "12973_anemone_flower_v1_l2",
            "scale" : [
                0.027000000700354576,
                0.027000000700354576,
                0.027000000700354576
            ]
        }
    ],
    "materials" : [
        {
            "doubleSided" : true,
            "name" : "12973_anemone_flower",
            "pbrMetallicRoughness" : {
                "baseColorTexture" : {
                    "index" : 0
                },
                "metallicFactor" : 0,
                "roughnessFactor" : 0.8300327062606812
            }
        }
    ],
    "meshes" : [
        {
            "name" : "12973_anemone_flower_v1_l2",
            "primitives" : [
                {
                    "attributes" : {
                        "POSITION" : 0,
                        "NORMAL" : 1,
                        "TEXCOORD_0" : 2
                    },
                    "indices" : 3,
                    "material" : 0
                }
            ]
        }
    ],
    "textures" : [
        {
            "sampler" : 0,
            "source" : 0
        }
    ],
    "images" : [
        {
            "mimeType" : "image/jpeg",
            "name" : "12973_anemone_flower_diff",
            "uri" : "12973_anemone_flower_diff.jpg"
        }
    ],
    "accessors" : [
        {
            "bufferView" : 0,
            "componentType" : 5126,
            "count" : 15751,
            "max" : [
                7.07034969329834,
                29.855220794677734,
                3.7893190383911133
            ],
            "min" : [
                -6.074965953826904,
                -0.06170912832021713,
                -13.126199722290039
            ],
            "type" : "VEC3"
        },
        {
            "bufferView" : 1,
            "componentType" : 5126,
            "count" : 15751,
            "type" : "VEC3"
        },
        {
            "bufferView" : 2,
            "componentType" : 5126,
            "count" : 15751,
            "type" : "VEC2"
        },
        {
            "bufferView" : 3,
            "componentType" : 5123,
            "count" : 53664,
            "type" : "SCALAR"
        }
    ],
    "bufferViews" : [
        {
            "buffer" : 0,
            "byteLength" : 189012,
            "byteOffset" : 0
        },
        {
            "buffer" : 0,
            "byteLength" : 189012,
            "byteOffset" : 189012
        },
        {
            "buffer" : 0,
            "byteLength" : 126008,
            "byteOffset" : 378024
        },
        {
            "buffer" : 0,
            "byteLength" : 107328,
            "byteOffset" : 504032
        }
    ],
    "samplers" : [
        {
            "magFilter" : 9729,
            "minFilter" : 9987
        }
    ],
    "buffers" : [
        {
            "byteLength" : 611360,
            "uri" : "anemone.bin"
        }
    ]
}
