{
    "asset" : {
        "generator" : "Khronos glTF Blender I/O v1.5.17",
        "version" : "2.0"
    },
    "scene" : 0,
    "scenes" : [
        {
            "name" : "Scene",
            "nodes" : [
                0
            ]
        }
    ],
    "nodes" : [
        {
            "mesh" : 0,
            "name" : "12974_crocus_flower_v1_l3",
            "scale" : [
                0.014999999664723873,
                0.014999999664723873,
                0.014999999664723873
            ]
        }
    ],
    "materials" : [
        {
            "doubleSided" : true,
            "name" : "12974_crocus_flower",
            "pbrMetallicRoughness" : {
                "baseColorTexture" : {
                    "index" : 0
                },
                "metallicFactor" : 0,
                "roughnessFactor" : 0.8027973175048828
            }
        }
    ],
    "meshes" : [
        {
            "name" : "12974_crocus_flower_v1_l3",
            "primitives" : [
                {
                    "attributes" : {
                        "POSITION" : 0,
                        "NORMAL" : 1,
                        "TEXCOORD_0" : 2
                    },
                    "indices" : 3,
                    "material" : 0
                }
            ]
        }
    ],
    "textures" : [
        {
            "sampler" : 0,
            "source" : 0
        }
    ],
    "images" : [
        {
            "mimeType" : "image/jpeg",
            "name" : "12974_crocus_flower_diff",
            "uri" : "12974_crocus_flower_diff.jpg"
        }
    ],
    "accessors" : [
        {
            "bufferView" : 0,
            "componentType" : 5126,
            "count" : 7530,
            "max" : [
                7.877299785614014,
                35.10768508911133,
                10.903427124023438
            ],
            "min" : [
                -9.739940643310547,
                -0.37094467878341675,
                -7.713720321655273
            ],
            "type" : "VEC3"
        },
        {
            "bufferView" : 1,
            "componentType" : 5126,
            "count" : 7530,
            "type" : "VEC3"
        },
        {
            "bufferView" : 2,
            "componentType" : 5126,
            "count" : 7530,
            "type" : "VEC2"
        },
        {
            "bufferView" : 3,
            "componentType" : 5123,
            "count" : 38976,
            "type" : "SCALAR"
        }
    ],
    "bufferViews" : [
        {
            "buffer" : 0,
            "byteLength" : 90360,
            "byteOffset" : 0
        },
        {
            "buffer" : 0,
            "byteLength" : 90360,
            "byteOffset" : 90360
        },
        {
            "buffer" : 0,
            "byteLength" : 60240,
            "byteOffset" : 180720
        },
        {
            "buffer" : 0,
            "byteLength" : 77952,
            "byteOffset" : 240960
        }
    ],
    "samplers" : [
        {
            "magFilter" : 9729,
            "minFilter" : 9987
        }
    ],
    "buffers" : [
        {
            "byteLength" : 318912,
            "uri" : "crocus.bin"
        }
    ]
}
