{
    "asset" : {
        "generator" : "Khronos glTF Blender I/O v1.5.17",
        "version" : "2.0"
    },
    "scene" : 0,
    "scenes" : [
        {
            "name" : "Scene",
            "nodes" : [
                8
            ]
        }
    ],
    "nodes" : [
        {
            "mesh" : 0,
            "name" : "yggrassil_02_bark_0"
        },
        {
            "mesh" : 1,
            "name" : "yggrassil_02_cap_0"
        },
        {
            "mesh" : 2,
            "name" : "yggrassil_02_Default_Material_0"
        },
        {
            "mesh" : 3,
            "name" : "yggrassil_02_leaves_0"
        },
        {
            "children" : [
                0,
                1,
                2,
                3
            ],
            "name" : "yggrassil_02",
            "rotation" : [
                -0.7071068286895752,
                0,
                0,
                0.7071068286895752
            ],
            "scale" : [
                26.845731735229492,
                26.845731735229492,
                26.845731735229492
            ]
        },
        {
            "children" : [
                4
            ],
            "name" : "RootNode"
        },
        {
            "children" : [
                5
            ],
            "name" : "yggrassil_02.fbx",
            "rotation" : [
                0.7071068286895752,
                0,
                0,
                0.7071068286895752
            ]
        },
        {
            "children" : [
                6
            ],
            "name" : "RootNode (model correction matrix)"
        },
        {
            "children" : [
                7
            ],
            "name" : "RootNode (gltf orientation matrix)",
            "rotation" : [
                1,
                0,
                0,
                0
            ],
            "scale" : [
                0.004999999888241291,
                0.004999999888241291,
                0.004999999888241291
            ]
        }
    ],
    "materials" : [
        {
            "doubleSided" : true,
            "name" : "bark",
            "normalTexture" : {
                "index" : 0
            },
            "pbrMetallicRoughness" : {
                "baseColorTexture" : {
                    "index" : 1
                },
                "metallicFactor" : 0,
                "roughnessFactor" : 0.6000000238418579
            }
        },
        {
            "doubleSided" : true,
            "name" : "material",
            "normalTexture" : {
                "index" : 2
            },
            "pbrMetallicRoughness" : {
                "baseColorTexture" : {
                    "index" : 3
                },
                "metallicFactor" : 0,
                "roughnessFactor" : 0.6000000238418579
            }
        },
        {
            "alphaCutoff" : 0,
            "alphaMode" : "MASK",
            "doubleSided" : true,
            "name" : "Default_Material",
            "normalTexture" : {
                "index" : 4
            },
            "pbrMetallicRoughness" : {
                "baseColorFactor" : [
                    0.5,
                    0.5,
                    0.5,
                    1
                ],
                "metallicFactor" : 0,
                "roughnessFactor" : 0.27877286076545715
            }
        },
        {
            "alphaCutoff" : 0.27610519528388977,
            "alphaMode" : "MASK",
            "doubleSided" : true,
            "name" : "leaves",
            "normalTexture" : {
                "index" : 5
            },
            "pbrMetallicRoughness" : {
                "baseColorTexture" : {
                    "index" : 6
                },
                "metallicFactor" : 0,
                "roughnessFactor" : 0.9556021094322205
            }
        }
    ],
    "meshes" : [
        {
            "name" : "yggrassil_02_bark_0",
            "primitives" : [
                {
                    "attributes" : {
                        "POSITION" : 0,
                        "NORMAL" : 1,
                        "TEXCOORD_0" : 2,
                        "TEXCOORD_1" : 3,
                        "TEXCOORD_2" : 4,
                        "TEXCOORD_3" : 5,
                        "TEXCOORD_4" : 6,
                        "COLOR_0" : 7
                    },
                    "indices" : 8,
                    "material" : 0
                }
            ]
        },
        {
            "name" : "yggrassil_02_cap_0",
            "primitives" : [
                {
                    "attributes" : {
                        "POSITION" : 9,
                        "NORMAL" : 10,
                        "TEXCOORD_0" : 11,
                        "TEXCOORD_1" : 12,
                        "TEXCOORD_2" : 13,
                        "TEXCOORD_3" : 14,
                        "TEXCOORD_4" : 15,
                        "COLOR_0" : 16
                    },
                    "indices" : 17,
                    "material" : 1
                }
            ]
        },
        {
            "name" : "yggrassil_02_Default_Material_0",
            "primitives" : [
                {
                    "attributes" : {
                        "POSITION" : 18,
                        "NORMAL" : 19,
                        "TEXCOORD_0" : 20,
                        "TEXCOORD_1" : 21,
                        "TEXCOORD_2" : 22,
                        "TEXCOORD_3" : 23,
                        "TEXCOORD_4" : 24,
                        "COLOR_0" : 25
                    },
                    "indices" : 26,
                    "material" : 2
                }
            ]
        },
        {
            "name" : "yggrassil_02_leaves_0",
            "primitives" : [
                {
                    "attributes" : {
                        "POSITION" : 27,
                        "NORMAL" : 28,
                        "TEXCOORD_0" : 29,
                        "TEXCOORD_1" : 30,
                        "TEXCOORD_2" : 31,
                        "TEXCOORD_3" : 32,
                        "TEXCOORD_4" : 33,
                        "TEXCOORD_5" : 34,
                        "COLOR_0" : 35
                    },
                    "indices" : 36,
                    "material" : 3
                }
            ]
        }
    ],
    "textures" : [
        {
            "sampler" : 0,
            "source" : 0
        },
        {
            "sampler" : 0,
            "source" : 1
        },
        {
            "sampler" : 0,
            "source" : 2
        },
        {
            "sampler" : 0,
            "source" : 3
        },
        {
            "sampler" : 0,
            "source" : 0
        },
        {
            "sampler" : 0,
            "source" : 4
        },
        {
            "sampler" : 0,
            "source" : 5
        }
    ],
    "images" : [
        {
            "mimeType" : "image/png",
            "name" : "bark_normal",
            "uri" : "bark_normal.png"
        },
        {
            "mimeType" : "image/png",
            "name" : "bark_baseColor",
            "uri" : "bark_baseColor.png"
        },
        {
            "mimeType" : "image/png",
            "name" : "material_normal",
            "uri" : "material_normal.png"
        },
        {
            "mimeType" : "image/png",
            "name" : "material_baseColor",
            "uri" : "material_baseColor.png"
        },
        {
            "mimeType" : "image/png",
            "name" : "leaves_normal",
            "uri" : "leaves_normal.png"
        },
        {
            "mimeType" : "image/png",
            "name" : "leaves_baseColor",
            "uri" : "leaves_baseColor.png"
        }
    ],
    "accessors" : [
        {
            "bufferView" : 0,
            "componentType" : 5126,
            "count" : 1477,
            "max" : [
                14.738743782043457,
                12.927111625671387,
                37.26394271850586
            ],
            "min" : [
                -10.012535095214844,
                -8.962751388549805,
                -0.37240201234817505
            ],
            "type" : "VEC3"
        },
        {
            "bufferView" : 1,
            "componentType" : 5126,
            "count" : 1477,
            "type" : "VEC3"
        },
        {
            "bufferView" : 2,
            "componentType" : 5126,
            "count" : 1477,
            "type" : "VEC2"
        },
        {
            "bufferView" : 3,
            "componentType" : 5126,
            "count" : 1477,
            "type" : "VEC2"
        },
        {
            "bufferView" : 4,
            "componentType" : 5126,
            "count" : 1477,
            "type" : "VEC2"
        },
        {
            "bufferView" : 5,
            "componentType" : 5126,
            "count" : 1477,
            "type" : "VEC2"
        },
        {
            "bufferView" : 6,
            "componentType" : 5126,
            "count" : 1477,
            "type" : "VEC2"
        },
        {
            "bufferView" : 7,
            "componentType" : 5123,
            "count" : 1477,
            "normalized" : true,
            "type" : "VEC4"
        },
        {
            "bufferView" : 8,
            "componentType" : 5123,
            "count" : 4995,
            "type" : "SCALAR"
        },
        {
            "bufferView" : 9,
            "componentType" : 5126,
            "count" : 46,
            "max" : [
                3.3050529956817627,
                3.2776107788085938,
                17.649032592773438
            ],
            "min" : [
                -0.6834555864334106,
                -2.08052921295166,
                14.892088890075684
            ],
            "type" : "VEC3"
        },
        {
            "bufferView" : 10,
            "componentType" : 5126,
            "count" : 46,
            "type" : "VEC3"
        },
        {
            "bufferView" : 11,
            "componentType" : 5126,
            "count" : 46,
            "type" : "VEC2"
        },
        {
            "bufferView" : 12,
            "componentType" : 5126,
            "count" : 46,
            "type" : "VEC2"
        },
        {
            "bufferView" : 13,
            "componentType" : 5126,
            "count" : 46,
            "type" : "VEC2"
        },
        {
            "bufferView" : 14,
            "componentType" : 5126,
            "count" : 46,
            "type" : "VEC2"
        },
        {
            "bufferView" : 15,
            "componentType" : 5126,
            "count" : 46,
            "type" : "VEC2"
        },
        {
            "bufferView" : 16,
            "componentType" : 5123,
            "count" : 46,
            "normalized" : true,
            "type" : "VEC4"
        },
        {
            "bufferView" : 17,
            "componentType" : 5123,
            "count" : 198,
            "type" : "SCALAR"
        },
        {
            "bufferView" : 18,
            "componentType" : 5126,
            "count" : 11,
            "max" : [
                6.765562534332275,
                1.539244532585144,
                29.141557693481445
            ],
            "min" : [
                5.800501823425293,
                0.6629268527030945,
                28.370880126953125
            ],
            "type" : "VEC3"
        },
        {
            "bufferView" : 19,
            "componentType" : 5126,
            "count" : 11,
            "type" : "VEC3"
        },
        {
            "bufferView" : 20,
            "componentType" : 5126,
            "count" : 11,
            "type" : "VEC2"
        },
        {
            "bufferView" : 21,
            "componentType" : 5126,
            "count" : 11,
            "type" : "VEC2"
        },
        {
            "bufferView" : 22,
            "componentType" : 5126,
            "count" : 11,
            "type" : "VEC2"
        },
        {
            "bufferView" : 23,
            "componentType" : 5126,
            "count" : 11,
            "type" : "VEC2"
        },
        {
            "bufferView" : 24,
            "componentType" : 5126,
            "count" : 11,
            "type" : "VEC2"
        },
        {
            "bufferView" : 25,
            "componentType" : 5123,
            "count" : 11,
            "normalized" : true,
            "type" : "VEC4"
        },
        {
            "bufferView" : 26,
            "componentType" : 5123,
            "count" : 30,
            "type" : "SCALAR"
        },
        {
            "bufferView" : 27,
            "componentType" : 5126,
            "count" : 3435,
            "max" : [
                24.74614143371582,
                23.23458480834961,
                43.270320892333984
            ],
            "min" : [
                -12.575151443481445,
                -19.674205780029297,
                13.990601539611816
            ],
            "type" : "VEC3"
        },
        {
            "bufferView" : 28,
            "componentType" : 5126,
            "count" : 3435,
            "type" : "VEC3"
        },
        {
            "bufferView" : 29,
            "componentType" : 5126,
            "count" : 3435,
            "type" : "VEC2"
        },
        {
            "bufferView" : 30,
            "componentType" : 5126,
            "count" : 3435,
            "type" : "VEC2"
        },
        {
            "bufferView" : 31,
            "componentType" : 5126,
            "count" : 3435,
            "type" : "VEC2"
        },
        {
            "bufferView" : 32,
            "componentType" : 5126,
            "count" : 3435,
            "type" : "VEC2"
        },
        {
            "bufferView" : 33,
            "componentType" : 5126,
            "count" : 3435,
            "type" : "VEC2"
        },
        {
            "bufferView" : 34,
            "componentType" : 5126,
            "count" : 3435,
            "type" : "VEC2"
        },
        {
            "bufferView" : 35,
            "componentType" : 5123,
            "count" : 3435,
            "normalized" : true,
            "type" : "VEC4"
        },
        {
            "bufferView" : 36,
            "componentType" : 5123,
            "count" : 8244,
            "type" : "SCALAR"
        }
    ],
    "bufferViews" : [
        {
            "buffer" : 0,
            "byteLength" : 17724,
            "byteOffset" : 0
        },
        {
            "buffer" : 0,
            "byteLength" : 17724,
            "byteOffset" : 17724
        },
        {
            "buffer" : 0,
            "byteLength" : 11816,
            "byteOffset" : 35448
        },
        {
            "buffer" : 0,
            "byteLength" : 11816,
            "byteOffset" : 47264
        },
        {
            "buffer" : 0,
            "byteLength" : 11816,
            "byteOffset" : 59080
        },
        {
            "buffer" : 0,
            "byteLength" : 11816,
            "byteOffset" : 70896
        },
        {
            "buffer" : 0,
            "byteLength" : 11816,
            "byteOffset" : 82712
        },
        {
            "buffer" : 0,
            "byteLength" : 11816,
            "byteOffset" : 94528
        },
        {
            "buffer" : 0,
            "byteLength" : 9990,
            "byteOffset" : 106344
        },
        {
            "buffer" : 0,
            "byteLength" : 552,
            "byteOffset" : 116336
        },
        {
            "buffer" : 0,
            "byteLength" : 552,
            "byteOffset" : 116888
        },
        {
            "buffer" : 0,
            "byteLength" : 368,
            "byteOffset" : 117440
        },
        {
            "buffer" : 0,
            "byteLength" : 368,
            "byteOffset" : 117808
        },
        {
            "buffer" : 0,
            "byteLength" : 368,
            "byteOffset" : 118176
        },
        {
            "buffer" : 0,
            "byteLength" : 368,
            "byteOffset" : 118544
        },
        {
            "buffer" : 0,
            "byteLength" : 368,
            "byteOffset" : 118912
        },
        {
            "buffer" : 0,
            "byteLength" : 368,
            "byteOffset" : 119280
        },
        {
            "buffer" : 0,
            "byteLength" : 396,
            "byteOffset" : 119648
        },
        {
            "buffer" : 0,
            "byteLength" : 132,
            "byteOffset" : 120044
        },
        {
            "buffer" : 0,
            "byteLength" : 132,
            "byteOffset" : 120176
        },
        {
            "buffer" : 0,
            "byteLength" : 88,
            "byteOffset" : 120308
        },
        {
            "buffer" : 0,
            "byteLength" : 88,
            "byteOffset" : 120396
        },
        {
            "buffer" : 0,
            "byteLength" : 88,
            "byteOffset" : 120484
        },
        {
            "buffer" : 0,
            "byteLength" : 88,
            "byteOffset" : 120572
        },
        {
            "buffer" : 0,
            "byteLength" : 88,
            "byteOffset" : 120660
        },
        {
            "buffer" : 0,
            "byteLength" : 88,
            "byteOffset" : 120748
        },
        {
            "buffer" : 0,
            "byteLength" : 60,
            "byteOffset" : 120836
        },
        {
            "buffer" : 0,
            "byteLength" : 41220,
            "byteOffset" : 120896
        },
        {
            "buffer" : 0,
            "byteLength" : 41220,
            "byteOffset" : 162116
        },
        {
            "buffer" : 0,
            "byteLength" : 27480,
            "byteOffset" : 203336
        },
        {
            "buffer" : 0,
            "byteLength" : 27480,
            "byteOffset" : 230816
        },
        {
            "buffer" : 0,
            "byteLength" : 27480,
            "byteOffset" : 258296
        },
        {
            "buffer" : 0,
            "byteLength" : 27480,
            "byteOffset" : 285776
        },
        {
            "buffer" : 0,
            "byteLength" : 27480,
            "byteOffset" : 313256
        },
        {
            "buffer" : 0,
            "byteLength" : 27480,
            "byteOffset" : 340736
        },
        {
            "buffer" : 0,
            "byteLength" : 27480,
            "byteOffset" : 368216
        },
        {
            "buffer" : 0,
            "byteLength" : 16488,
            "byteOffset" : 395696
        }
    ],
    "samplers" : [
        {
            "magFilter" : 9729,
            "minFilter" : 9987
        }
    ],
    "buffers" : [
        {
            "byteLength" : 412184,
            "uri" : "tree.bin"
        }
    ]
}
